<?xml version="1.0" encoding="utf-8"?>
<!-- Generator: Adobe Illustrator 24.1.0, SVG Export Plug-In . SVG Version: 6.00 Build 0)  -->
<svg version="1.1" id="Calque_1" xmlns="http://www.w3.org/2000/svg" xmlns:xlink="http://www.w3.org/1999/xlink" x="0px" y="0px"
	 viewBox="0 0 172.6 178.6" style="enable-background:new 0 0 172.6 178.6;" xml:space="preserve">
<style type="text/css">
	.st0{fill:#00ADC6;}
	.st1{fill:#00AFCB;}
	.st2{fill-rule:evenodd;clip-rule:evenodd;fill:#0E2356;}
</style>
<g>
	<path class="st0" d="M149.7,25.7c3.9,3.9,3.9,10.3,0,14.2c-3.9,3.9-10.3,3.9-14.2,0s-3.9-10.3,0-14.2S145.8,21.8,149.7,25.7z"/>
	<path class="st1" d="M109.6,65.7c3.9,3.9,3.9,10.3,0,14.2c-3.9,3.9-10.3,3.9-14.2,0c-3.9-3.9-3.9-10.3,0-14.2
		C99.3,61.7,105.7,61.7,109.6,65.7z"/>
</g>
<g>
	<g>
		<path class="st2" d="M84.6,22.7c-37.5,0-68.1,30.6-68.1,68.2c0,37.6,30.5,68.2,68.1,68.2s68.1-30.6,68.1-68.2
			C152.6,53.3,122.1,22.7,84.6,22.7z M84.6,130.4c-21.7,0-39.4-17.7-39.4-39.5s17.7-39.5,39.4-39.5S124,69.1,124,90.9
			S106.3,130.4,84.6,130.4z"/>
	</g>
</g>
</svg>
